<svg xmlns="http://www.w3.org/2000/svg" xmlns:xlink="http://www.w3.org/1999/xlink" width="512" height="512" viewBox="0 0 512 512">
  <defs>
    <clipPath id="clip-custom_11">
      <rect width="512" height="512"/>
    </clipPath>
  </defs>
  <g id="custom_11" data-name="custom – 11" clip-path="url(#clip-custom_11)">
    <rect width="512" height="512" fill="#fff"/>
    <g id="hourglass" transform="translate(96)">
      <g id="Group_36197" data-name="Group 36197" transform="translate(0)">
        <path id="Path_38570" data-name="Path 38570" d="M373.021,477.863H357.66V377.17c0-25.6-15.36-56.318-35.839-71.679L262.088,257.7l59.734-47.787c20.479-15.358,35.839-46.08,35.839-71.679V34.133h15.361c10.239,0,17.067-6.826,17.067-17.067S383.261,0,373.021,0H86.3C76.064,0,69.236,6.826,69.236,17.067S76.062,34.134,86.3,34.134h15.36V138.24c0,25.6,15.36,56.318,35.839,71.679l59.733,47.787L137.5,305.494c-20.479,15.358-35.839,46.08-35.839,71.679V477.866H86.3c-10.239,0-17.067,6.826-17.067,17.067S76.062,512,86.3,512H373.021c10.239,0,17.067-6.826,17.067-17.067S383.261,477.863,373.021,477.863ZM157.982,182.612C146.035,174.078,135.8,153.6,135.8,138.24V34.133H323.529V138.238c0,13.652-10.24,35.839-22.186,44.372l-66.561,52.906a14.567,14.567,0,0,0-5.819,7.415,28.115,28.115,0,0,0-4.419-5.708ZM323.526,477.863H135.8V377.17c0-15.361,10.24-35.839,22.186-44.372l66.561-52.906a14.573,14.573,0,0,0,5.82-7.414,28.112,28.112,0,0,0,4.418,5.708L301.34,332.8c11.947,8.534,22.185,29.013,22.185,44.372Z" transform="translate(-69.236 0)" fill="#222"/>
      </g>
    </g>
  </g>
</svg>
