<svg xmlns="http://www.w3.org/2000/svg" xmlns:xlink="http://www.w3.org/1999/xlink" width="512" height="512" viewBox="0 0 512 512">
  <defs>
    <clipPath id="clip-Flexible_Payment_Options">
      <rect width="512" height="512"/>
    </clipPath>
  </defs>
  <g id="Flexible_Payment_Options" data-name="Flexible Payment Options" clip-path="url(#clip-Flexible_Payment_Options)">
    <rect width="512" height="512" fill="transparent"/>
    <g id="_001-payment-method" data-name="001-payment-method" transform="translate(0 -0.023)">
      <g id="Group_35" data-name="Group 35">
        <g id="Group_34" data-name="Group 34">
          <path id="Path_21" data-name="Path 21" d="M172.55,391.9a10.437,10.437,0,0,0-.57-1.88,10.146,10.146,0,0,0-.92-1.72,9.718,9.718,0,0,0-2.76-2.76,9.87,9.87,0,0,0-1.73-.92,9.391,9.391,0,0,0-1.87-.57,9.847,9.847,0,0,0-3.9,0,9.689,9.689,0,0,0-1.88.57,10.145,10.145,0,0,0-1.72.92,10,10,0,0,0-3.68,4.48,9.689,9.689,0,0,0-.57,1.88,9.607,9.607,0,0,0,0,3.9,9.391,9.391,0,0,0,.57,1.87,9.246,9.246,0,0,0,.92,1.73,9.718,9.718,0,0,0,2.76,2.76,10.08,10.08,0,0,0,1.72.921,9.689,9.689,0,0,0,1.88.57,9.606,9.606,0,0,0,3.9,0,9.391,9.391,0,0,0,1.87-.57,9.875,9.875,0,0,0,1.73-.921,9.718,9.718,0,0,0,2.76-2.76,9.869,9.869,0,0,0,.92-1.73,10.1,10.1,0,0,0,.57-1.87,9.607,9.607,0,0,0,0-3.9Z"/>
        </g>
      </g>
      <g id="Group_37" data-name="Group 37">
        <g id="Group_36" data-name="Group 36">
          <path id="Path_22" data-name="Path 22" d="M459.993,394.982c-.039-.1-.079-.2-.121-.3-9.2-21.537-30.79-29.5-56.336-20.772l-69.668,19.266c-4.028-12.2-14.075-22.578-28.281-27.85-.088-.032-.176-.064-.265-.094l-76.581-25.992c-6.374-8.239-26.34-29.321-63.723-29.321-26.125,0-49.236,17.922-62.458,37.457H10a10,10,0,0,0-10,10V483.456a10,10,0,0,0,10,10H69.457a10,10,0,0,0,10-10v-8.634H107.34a10,10,0,0,0,10-10v-2.878c16.254,1.418,21.6,4.5,36.528,13.109a605.167,605.167,0,0,0,60.077,30.674c.145.065.292.127.439.185a89.762,89.762,0,0,0,32.173,6.065,79.708,79.708,0,0,0,33.131-7.094l153.991-55.136c.274-.1.544-.208.808-.33C449.2,442.646,471.135,423.563,459.993,394.982ZM59.457,473.455H20V367.378H59.457ZM97.34,454.821H79.457V367.378H97.34ZM426.5,431.074,272.574,486.185c-.135.048-.318.12-.451.174s-.27.113-.4.174c-21.437,9.852-41.814,3.954-49.8.849a579.276,579.276,0,0,1-58.061-29.657c-16.364-9.436-24.249-13.984-46.519-15.823V361.36c9.479-15.536,27.861-31.439,47.679-31.439,33.986,0,48.387,22.105,48.953,23a10,10,0,0,0,5.3,4.232l79.475,26.974c12.693,4.764,19.4,15.634,16.318,26.474a19.485,19.485,0,0,1-23.94,13.449l-89.593-28.392a10,10,0,1,0-6.042,19.066l89.749,28.441c.1.03.19.059.286.086a39.251,39.251,0,0,0,30.018-3.488,39.219,39.219,0,0,0,18.759-23.692q.345-1.215.611-2.43L410,392.838c10.844-3.7,25.079-5.039,31.417,9.558C447.978,419.533,430.928,428.96,426.5,431.074Z"/>
        </g>
      </g>
      <g id="Group_39" data-name="Group 39">
        <g id="Group_38" data-name="Group 38">
          <path id="Path_23" data-name="Path 23" d="M359.06,131.543a9.723,9.723,0,0,0-.58-1.88,9.857,9.857,0,0,0-3.68-4.48,10.146,10.146,0,0,0-1.72-.92,9.96,9.96,0,0,0-5.78-.57,9.392,9.392,0,0,0-1.87.57,9.87,9.87,0,0,0-1.73.92,9.718,9.718,0,0,0-2.76,2.76,10.146,10.146,0,0,0-.92,1.72,9.689,9.689,0,0,0-.57,1.88,9.606,9.606,0,0,0,0,3.9,9.391,9.391,0,0,0,.57,1.87,9.868,9.868,0,0,0,.92,1.73,9.718,9.718,0,0,0,2.76,2.76,9.869,9.869,0,0,0,1.73.92,10.1,10.1,0,0,0,1.87.57,9.851,9.851,0,0,0,1.95.2,10.029,10.029,0,0,0,1.96-.2,10.584,10.584,0,0,0,1.87-.57,10.146,10.146,0,0,0,1.72-.92,9.718,9.718,0,0,0,2.76-2.76,9.245,9.245,0,0,0,.92-1.73,9.418,9.418,0,0,0,.58-1.87,10.1,10.1,0,0,0,0-3.9Z"/>
        </g>
      </g>
      <g id="Group_41" data-name="Group 41">
        <g id="Group_40" data-name="Group 40">
          <path id="Path_24" data-name="Path 24" d="M502,33.891H442.543a10,10,0,0,0-10,10v8.634H404.66a10,10,0,0,0-10,10V65.4c-16.254-1.419-21.6-4.5-36.527-13.109A605.1,605.1,0,0,0,298.055,21.62c-.145-.066-.291-.127-.44-.185-10.171-4-36.828-11.876-65.3,1.027L192.076,36.87,158.157,2.952a10,10,0,0,0-14.142,0L32.657,114.309a9.918,9.918,0,0,0,0,14.143L222.944,318.739c3.045,3.046,10.175,3.967,14.143,0L338.752,217.075c2.643.228,5.386.351,8.229.351,26.126,0,49.236-17.922,62.457-37.456H502a10,10,0,0,0,10-10V43.891A10,10,0,0,0,502,33.891ZM151.085,24.165l22.792,22.792a43.6,43.6,0,0,1-45.584,0ZM76.663,144.173,53.871,121.38,76.663,98.588a43.6,43.6,0,0,1,0,45.585ZM230.016,297.525l-22.788-22.788a43.539,43.539,0,0,1,45.575,0Zm37.195-37.194a63.548,63.548,0,0,0-74.39,0L91.07,158.579a63.55,63.55,0,0,0,0-74.4l22.817-22.816a63.55,63.55,0,0,0,74.4,0l21.629,21.629a39.636,39.636,0,0,0-29.756,21.8,57,57,0,1,0,65.533,70.556l33.764,11.459a63.844,63.844,0,0,0,10.593,50.682Zm-60.8-98.313c.088.032.176.064.265.094l20,6.787a37,37,0,1,1-50.225-42.266C178.295,141.995,189.356,155.688,206.413,162.018Zm98.044,61.066a43.739,43.739,0,0,1-6.389-20.8,77.755,77.755,0,0,0,17.636,9.549Zm90.2-57.1c-9.478,15.538-27.86,31.441-47.678,31.441a72.785,72.785,0,0,1-10.432-.734l-.039-.006c-21.6-3.137-33.213-15.411-37.042-20.271-.2-.3-1.073-1.437-1.2-1.626a9.964,9.964,0,0,0-5.511-4.583l-79.508-26.985c-12.688-4.762-19.4-15.627-16.321-26.463l.006-.021a.232.232,0,0,0,.007-.025,19.483,19.483,0,0,1,23.93-13.413l89.593,28.391a10,10,0,0,0,6.042-19.066l-71.255-22.58-.622-.622c-.006-.006-.012-.013-.019-.019l-36.89-36.89,31.708-11.354c.107-.039.239-.088.345-.131l.1-.042c.136-.055.27-.113.4-.174,21.436-9.852,41.812-3.955,49.8-.849a579.261,579.261,0,0,1,58.063,29.657c16.364,9.437,24.249,13.984,46.518,15.823Zm37.884-6.015H414.66V72.525h17.883Zm59.457,0H452.543V53.891H492Z"/>
        </g>
      </g>
    </g>
  </g>
</svg>
